<svg width="21" height="21" viewBox="0 0 21 21" fill="none" xmlns="http://www.w3.org/2000/svg">
<path d="M20.5814 10.7519C20.5814 10.0428 20.5128 9.31078 20.3984 8.62451H10.4933V12.6735H16.1664C15.9377 13.9774 15.1828 15.1212 14.0619 15.8532L17.4474 18.4839C19.4376 16.6309 20.5814 13.9316 20.5814 10.7519Z" fill="#4280EF"/>
<path d="M10.495 21.0001C13.3315 21.0001 15.7106 20.0622 17.4491 18.4609L14.0636 15.8531C13.1257 16.4936 11.9133 16.8596 10.495 16.8596C7.74992 16.8596 5.4395 15.0067 4.5931 12.5361L1.11603 15.2126C2.90032 18.7583 6.51465 21.0001 10.495 21.0001Z" fill="#34A353"/>
<path d="M4.59226 12.5132C4.15762 11.2093 4.15762 9.79105 4.59226 8.48715L1.11518 5.78784C-0.371727 8.76166 -0.371727 12.2616 1.11518 15.2125L4.59226 12.5132Z" fill="#F6B704"/>
<path d="M10.495 4.16374C11.9819 4.14087 13.4459 4.71275 14.5211 5.74215L17.5178 2.72258C15.6191 0.938295 13.1028 -0.0224763 10.495 0.000399244C6.51465 0.000399244 2.90032 2.2422 1.11603 5.7879L4.5931 8.48721C5.4395 5.99378 7.74992 4.16374 10.495 4.16374Z" fill="#E54335"/>
</svg>
