<svg width="240" height="62" viewBox="0 0 240 62" fill="none" xmlns="http://www.w3.org/2000/svg">
<path d="M56.0195 0V61.4634H43.7268V16.4195H41.0049V31.1707L34.7707 61.4634H20.8976L14.6634 31.1707V16.4195H12.2927V61.4634H0V0H13.3463C17.3854 0 19.7561 1.93171 20.6341 5.79513L26.5171 33.7171V49.1707H28.9756V33.7171L35.0341 5.97073C36 1.93171 38.2829 0 42.4098 0H56.0195Z" fill="#0543E4"/>
<path d="M230.685 53.0155C231.581 52.1515 232.781 51.7195 234.285 51.7195C235.757 51.7195 236.957 52.1515 237.885 53.0155C238.813 53.8475 239.277 55.0315 239.277 56.5675C239.277 58.1035 238.813 59.3035 237.885 60.1675C236.957 61.0315 235.757 61.4635 234.285 61.4635C232.845 61.4635 231.661 61.0315 230.733 60.1675C229.805 59.3035 229.341 58.1035 229.341 56.5675C229.341 55.0635 229.789 53.8795 230.685 53.0155Z" fill="#0543E4"/>
<path d="M223.569 35.3515V60.8395H215.313V35.3515H223.569ZM215.937 25.2235C216.833 24.4555 217.985 24.0715 219.393 24.0715C220.801 24.0715 221.953 24.4555 222.849 25.2235C223.745 25.9595 224.193 27.0155 224.193 28.3915C224.193 29.7355 223.745 30.7915 222.849 31.5595C221.953 32.3275 220.801 32.7115 219.393 32.7115C218.017 32.7115 216.881 32.3275 215.985 31.5595C215.089 30.7915 214.641 29.7355 214.641 28.3915C214.641 27.0155 215.073 25.9595 215.937 25.2235Z" fill="black"/>
<path d="M200.008 59.3517C198.568 58.0077 197.848 55.9437 197.848 53.1597V42.0237H192.904L206.104 27.3357V35.3517H212.152V42.0237H206.104V51.7197C206.104 52.6157 206.296 53.2717 206.68 53.6877C207.064 54.1037 207.672 54.3117 208.504 54.3117C209.432 54.3117 210.504 54.0557 211.72 53.5437V60.0237C210.12 60.9197 208.232 61.3677 206.056 61.3677C203.464 61.3677 201.448 60.6957 200.008 59.3517Z" fill="black"/>
<path d="M177.036 56.0877C178.828 56.0877 180.364 55.4957 181.644 54.3117V50.1837C180.492 49.6077 179.18 49.3197 177.708 49.3197C176.332 49.3197 175.212 49.6397 174.348 50.2797C173.484 50.8877 173.052 51.7037 173.052 52.7277C173.052 53.7197 173.436 54.5357 174.204 55.1757C174.972 55.7837 175.916 56.0877 177.036 56.0877ZM177.228 34.9197C185.548 34.9197 189.708 38.5837 189.708 45.9117V61.3197L181.596 58.1997C179.612 60.3437 177.084 61.4157 174.012 61.4157C172.316 61.4157 170.78 61.0957 169.404 60.4557C168.06 59.7837 166.988 58.8397 166.188 57.6237C165.388 56.3757 164.988 54.9037 164.988 53.2077C164.988 50.5517 165.916 48.5357 167.772 47.1597C169.66 45.7837 172.124 45.0957 175.164 45.0957C177.628 45.0957 179.788 45.4637 181.644 46.1997V45.6717C181.644 44.1357 181.1 43.0317 180.012 42.3597C178.956 41.6557 177.34 41.3037 175.164 41.3037C172.444 41.3037 169.772 41.8477 167.148 42.9357V36.9357C168.78 36.2957 170.38 35.7997 171.948 35.4477C173.516 35.0957 175.276 34.9197 177.228 34.9197Z" fill="black"/>
<path d="M158.743 37.4156C160.311 39.1756 161.095 41.4476 161.095 44.2316V60.8396H152.839V46.8716C152.839 45.3356 152.455 44.1676 151.687 43.3676C150.951 42.5356 150.007 42.1196 148.855 42.1196C147.703 42.1196 146.711 42.5356 145.879 43.3676C145.047 44.1676 144.631 45.3356 144.631 46.8716V60.8396H136.375V35.3516L144.631 38.8556C146.807 36.1356 149.383 34.7756 152.359 34.7756C155.047 34.7756 157.175 35.6556 158.743 37.4156Z" fill="black"/>
<path d="M131.179 35.3515V60.8395H122.923V35.3515H131.179ZM123.547 25.2235C124.443 24.4555 125.595 24.0715 127.003 24.0715C128.411 24.0715 129.563 24.4555 130.459 25.2235C131.355 25.9595 131.803 27.0155 131.803 28.3915C131.803 29.7355 131.355 30.7915 130.459 31.5595C129.563 32.3275 128.411 32.7115 127.003 32.7115C125.627 32.7115 124.491 32.3275 123.595 31.5595C122.699 30.7915 122.251 29.7355 122.251 28.3915C122.251 27.0155 122.683 25.9595 123.547 25.2235Z" fill="black"/>
<path d="M117.64 25.7996V61.3196L109.288 57.3356C108.232 58.6156 107.08 59.6236 105.832 60.3596C104.616 61.0636 103.128 61.4156 101.368 61.4156C99.2876 61.4156 97.3676 60.8716 95.6076 59.7836C93.8476 58.6956 92.4396 57.1436 91.3836 55.1276C90.3596 53.1116 89.8476 50.7756 89.8476 48.1196C89.8476 45.4636 90.3596 43.1276 91.3836 41.1116C92.4396 39.0636 93.8316 37.4956 95.5596 36.4076C97.3196 35.3196 99.2396 34.7756 101.32 34.7756C103.112 34.7756 104.648 35.1276 105.928 35.8316C107.208 36.5036 108.36 37.4476 109.384 38.6636V25.7996H117.64ZM100.744 53.5916C101.608 54.1676 102.6 54.4556 103.72 54.4556C105.352 54.4556 106.728 53.8636 107.848 52.6796C108.968 51.4636 109.528 49.9116 109.528 48.0236C109.528 46.1996 108.952 44.6956 107.8 43.5116C106.68 42.2956 105.32 41.6876 103.72 41.6876C102.152 41.6876 100.808 42.2956 99.6876 43.5116C98.5676 44.6956 98.0076 46.2316 98.0076 48.1196C98.0076 49.2076 98.2476 50.2476 98.7276 51.2396C99.2076 52.1996 99.8796 52.9836 100.744 53.5916Z" fill="black"/>
<path d="M73.0675 56.0877C74.8595 56.0877 76.3955 55.4957 77.6755 54.3117V50.1837C76.5235 49.6077 75.2115 49.3197 73.7395 49.3197C72.3635 49.3197 71.2435 49.6397 70.3795 50.2797C69.5155 50.8877 69.0835 51.7037 69.0835 52.7277C69.0835 53.7197 69.4675 54.5357 70.2355 55.1757C71.0035 55.7837 71.9475 56.0877 73.0675 56.0877ZM73.2595 34.9197C81.5795 34.9197 85.7395 38.5837 85.7395 45.9117V61.3197L77.6275 58.1997C75.6435 60.3437 73.1155 61.4157 70.0435 61.4157C68.3475 61.4157 66.8115 61.0957 65.4355 60.4557C64.0915 59.7837 63.0195 58.8397 62.2195 57.6237C61.4195 56.3757 61.0195 54.9037 61.0195 53.2077C61.0195 50.5517 61.9475 48.5357 63.8035 47.1597C65.6915 45.7837 68.1555 45.0957 71.1955 45.0957C73.6595 45.0957 75.8195 45.4637 77.6755 46.1997V45.6717C77.6755 44.1357 77.1315 43.0317 76.0435 42.3597C74.9875 41.6557 73.3715 41.3037 71.1955 41.3037C68.4755 41.3037 65.8035 41.8477 63.1795 42.9357V36.9357C64.8115 36.2957 66.4115 35.7997 67.9795 35.4477C69.5475 35.0957 71.3075 34.9197 73.2595 34.9197Z" fill="black"/>
</svg>
